<svg id="Camada_1" data-name="Camada 1" xmlns="http://www.w3.org/2000/svg" xmlns:xlink="http://www.w3.org/1999/xlink" viewBox="0 0 141.17 126.73"><defs><style>.cls-1{fill:#b74a6b;}.cls-2{fill:#434951;}.cls-3{fill:url(#Gradiente_sem_nome_99);}</style><linearGradient id="Gradiente_sem_nome_99" x1="381.39" y1="265.28" x2="477.77" y2="265.28" gradientTransform="translate(-86.15 66.52) rotate(-6.55)" gradientUnits="userSpaceOnUse"><stop offset="0" stop-color="#149597"/><stop offset="0.21" stop-color="#169a99"/><stop offset="0.46" stop-color="#1ca89e"/><stop offset="0.72" stop-color="#26bfa7"/><stop offset="0.99" stop-color="#34dfb3"/><stop offset="1" stop-color="#35e0b3"/></linearGradient></defs><title>hublife_symbol</title><path class="cls-1" d="M398.26,201.18c-44.35-34.64-57.65,19.87-62.81,46.33-.45,2.31-1,4.59-1.56,6.86A203.71,203.71,0,0,1,361,278s18.81,17.89-3.35,32.49a36.14,36.14,0,0,1-7.08,3.62c8.66-2,17.3-7.37,23.5-11.93,1.52-1.11,3-2.28,4.43-3.5,13.21-11.24,23-26.81,29.76-42.56C416.67,236.59,416.14,215.15,398.26,201.18Z" transform="translate(-272.36 -190)"/><path class="cls-2" d="M332,311c-15.78-12-4.2-32.93,1.87-56.61C314.67,240.66,290.2,230,278,252.22c-11.38,20.6-5,40.57,15.31,51.58,1,.55,2.06,1.1,3.11,1.64,16.08,8.25,36.87,15.29,54.22,8.67C344.07,315.61,337.53,315.18,332,311Z" transform="translate(-272.36 -190)"/><path class="cls-3" d="M361,278a203.71,203.71,0,0,0-27.14-23.63C327.82,278.05,316.24,299,332,311c5.51,4.2,12.05,4.63,18.58,3.13a36.14,36.14,0,0,0,7.08-3.62C379.84,295.89,361,278,361,278Z" transform="translate(-272.36 -190)"/><path class="cls-1" d="M361,278a203.71,203.71,0,0,0-27.14-23.63C327.82,278.05,316.24,299,332,311c5.51,4.2,12.05,4.63,18.58,3.13a36.14,36.14,0,0,0,7.08-3.62C379.84,295.89,361,278,361,278Z" transform="translate(-272.36 -190)"/></svg>