<svg id="Camada_1" data-name="Camada 1" xmlns="http://www.w3.org/2000/svg" viewBox="0 0 473.8 126.73"><defs><style>.cls-1{fill:#fff;}</style></defs><title>hublife_logopb</title><path class="cls-1" d="M469.93,274.83v30.41a2.37,2.37,0,0,1-2.61,2.61H456.91a2.37,2.37,0,0,1-2.61-2.61V276.18c0-5.21-3-7.5-7-7.5-4.69,0-7.6,2.6-7.6,8.75v27.81a2.37,2.37,0,0,1-2.61,2.61H426.7a2.37,2.37,0,0,1-2.61-2.61V237.53a2.36,2.36,0,0,1,2.61-2.6h10.41a2.36,2.36,0,0,1,2.61,2.6v23c2.45-3.62,6.88-6.22,13.54-6.22C463,254.3,469.93,261.81,469.93,274.83Z" transform="translate(-272.36 -190)"/><path class="cls-1" d="M524.51,258.37v46.87a2.36,2.36,0,0,1-2.6,2.61H511.49a2.36,2.36,0,0,1-2.6-2.61v-2.15c-2.45,3.62-6.89,6.22-13.55,6.22-9.68,0-16.66-7.5-16.66-20.52V258.37a2.36,2.36,0,0,1,2.6-2.61H491.7a2.36,2.36,0,0,1,2.6,2.61v29.06c0,5.21,3,7.5,7,7.5,4.69,0,7.61-2.6,7.61-8.75V258.37a2.36,2.36,0,0,1,2.6-2.61h10.42A2.36,2.36,0,0,1,524.51,258.37Z" transform="translate(-272.36 -190)"/><path class="cls-1" d="M592,281.81c0,15.52-11.25,27.5-24.9,27.5-7,0-12-2.35-15.52-6.33v2.26a2.37,2.37,0,0,1-2.61,2.61H538.58a2.37,2.37,0,0,1-2.61-2.61V237.53a2.36,2.36,0,0,1,2.61-2.6H549a2.36,2.36,0,0,1,2.61,2.6v23.1c3.48-4,8.55-6.33,15.52-6.33C580.77,254.3,592,266.28,592,281.81Zm-15.63,0c0-7.82-5.21-12.71-12.4-12.71S551.6,274,551.6,281.81s5.21,12.71,12.39,12.71S576.39,289.62,576.39,281.81Z" transform="translate(-272.36 -190)"/><path class="cls-1" d="M604.4,305.28v-68a1.92,1.92,0,0,1,2.13-2.14H611a1.92,1.92,0,0,1,2.13,2.14v68a1.92,1.92,0,0,1-2.13,2.13h-4.47A1.92,1.92,0,0,1,604.4,305.28Z" transform="translate(-272.36 -190)"/><path class="cls-1" d="M626.48,246v-6.77a1.93,1.93,0,0,1,2.14-2.14h4.46a1.93,1.93,0,0,1,2.14,2.14V246a1.93,1.93,0,0,1-2.14,2.14h-4.46A1.93,1.93,0,0,1,626.48,246Zm0,59.24V259.35a1.93,1.93,0,0,1,2.14-2.14h4.46a1.93,1.93,0,0,1,2.14,2.14v45.93a1.92,1.92,0,0,1-2.14,2.13h-4.46A1.92,1.92,0,0,1,626.48,305.28Z" transform="translate(-272.36 -190)"/><path class="cls-1" d="M660.24,255.71v1.5h11a1.92,1.92,0,0,1,2.13,2.14v4.16a1.92,1.92,0,0,1-2.13,2.14h-11v39.63a1.92,1.92,0,0,1-2.13,2.13h-4.47a1.92,1.92,0,0,1-2.13-2.13V265.65h-6a1.93,1.93,0,0,1-2.14-2.14v-4.16a1.93,1.93,0,0,1,2.14-2.14h6v-1.5c0-12.68,6.85-20.08,19.78-19.93a2,2,0,0,1,2.13,2.23v4.17c0,1.38-.75,2-2.23,2C663.91,244.14,660.24,247.8,660.24,255.71Z" transform="translate(-272.36 -190)"/><path class="cls-1" d="M726.63,282.46c0,.63,0,1.23,0,1.84a2,2,0,0,1-2.26,2H685c1.5,9.26,8.31,14.51,17.21,14.51,5.75,0,10.3-2.51,12.63-6a3.08,3.08,0,0,1,2.59-1.38l4.81,0c1.59,0,2.44.91,1.86,2.21-3.54,7.91-11.77,13-22,13-15.69,0-26.11-11.25-26.11-26.36C676,267.5,686.37,256,702,256,717.19,256,726.63,268.36,726.63,282.46Zm-8.87-3.84c-1.33-9.84-8.26-14.5-15.78-14.5-9.32,0-15.61,5.81-17,14.5Z" transform="translate(-272.36 -190)"/><circle class="cls-1" cx="465.51" cy="64.32" r="8.3"/><path class="cls-1" d="M398.26,201.18c-44.35-34.64-57.65,19.87-62.81,46.33-.45,2.31-1,4.59-1.56,6.86A203.71,203.71,0,0,1,361,278s18.81,17.89-3.35,32.49a36.14,36.14,0,0,1-7.08,3.62c8.66-2,17.3-7.37,23.5-11.93,1.52-1.11,3-2.28,4.43-3.5,13.21-11.24,23-26.81,29.76-42.56C416.67,236.59,416.14,215.15,398.26,201.18Z" transform="translate(-272.36 -190)"/><path class="cls-1" d="M332,311c-15.78-12-4.2-32.93,1.87-56.61C314.67,240.66,290.2,230,278,252.22c-11.38,20.6-5,40.57,15.31,51.58,1,.55,2.06,1.1,3.11,1.64,16.08,8.25,36.87,15.29,54.22,8.67C344.07,315.61,337.53,315.18,332,311Z" transform="translate(-272.36 -190)"/><path class="cls-1" d="M361,278a203.71,203.71,0,0,0-27.14-23.63C327.82,278.05,316.24,299,332,311c5.51,4.2,12.05,4.63,18.58,3.13a36.14,36.14,0,0,0,7.08-3.62C379.84,295.89,361,278,361,278Z" transform="translate(-272.36 -190)"/><path class="cls-1" d="M361,278a203.71,203.71,0,0,0-27.14-23.63C327.82,278.05,316.24,299,332,311c5.51,4.2,12.05,4.63,18.58,3.13a36.14,36.14,0,0,0,7.08-3.62C379.84,295.89,361,278,361,278Z" transform="translate(-272.36 -190)"/></svg>